<svg xmlns="http://www.w3.org/2000/svg" data-name="Artboard 30" viewBox="0 0 64 64"><rect width="2" height="4" x="49" y="23"/><rect width="2" height="4" x="49" y="30"/><path d="M60,15H4a3,3,0,0,0-3,3V28a2,2,0,0,0,2,2,2,2,0,0,1,0,4,2,2,0,0,0-2,2V46a3,3,0,0,0,3,3H60a3,3,0,0,0,3-3V18A3,3,0,0,0,60,15Zm1,31a1,1,0,0,1-1,1H51V44H49v3H4a1,1,0,0,1-1-1V36H3a4,4,0,0,0,0-8V18a1,1,0,0,1,1-1H49v3h2V17h9a1,1,0,0,1,1,1Z"/><polygon points="12 21 12 19 6 19 6 21 8 21 8 29 10 29 10 21 12 21"/><rect width="2" height="10" x="14" y="19"/><path d="M21 29a3 3 0 003-3H22a1 1 0 01-2 0V22a1 1 0 012 0h2a3 3 0 00-6 0v4A3 3 0 0021 29zM28 25h.586L30 26.414V29h2V26a1 1 0 00-.293-.707L30.414 24l1.293-1.293A1 1 0 0032 22V19H30v2.586L28.586 23H28V19H26V29h2zM35 29h4V27H36V25h3V23H36V21h3V19H35a1 1 0 00-1 1v8A1 1 0 0035 29z"/><polygon points="41 21 43 21 43 29 45 29 45 21 47 21 47 19 41 19 41 21"/><rect width="2" height="4" x="49" y="37"/><rect width="6" height="2" x="53" y="19"/><rect width="6" height="2" x="53" y="23"/><rect width="6" height="2" x="53" y="27"/><rect width="6" height="2" x="53" y="31"/><rect width="6" height="2" x="53" y="35"/><rect width="6" height="2" x="53" y="39"/><rect width="6" height="2" x="53" y="43"/><path d="M15 35a3 3 0 00-3 3v4a3 3 0 006 0V38A3 3 0 0015 35zm1 7a1 1 0 01-2 0V38a1 1 0 012 0zM23 35a3 3 0 00-3 3v4a3 3 0 006 0V38A3 3 0 0023 35zm1 7a1 1 0 01-2 0V38a1 1 0 012 0zM31 35a3 3 0 00-3 3v4a3 3 0 006 0V38A3 3 0 0031 35zm1 7a1 1 0 01-2 0V38a1 1 0 012 0zM39 35a3 3 0 00-3 3v4a3 3 0 006 0V38A3 3 0 0039 35zm1 7a1 1 0 01-2 0V38a1 1 0 012 0z"/><rect width="34" height="2" x="11" y="31"/></svg>