<svg xmlns="http://www.w3.org/2000/svg" data-name="Layer 1" viewBox="0 0 1000 1000"><path d="M792.07,768.51H207.93a38.23,38.23,0,0,1-33-57.63c30.33-51.15,53.06-124.12,57.3-138.23a6,6,0,0,0,.26-1.79V449.42c0-.13,0-.27,0-.4,1.54-61.86,16.56-115,44.62-157.82,22.63-34.57,53.61-62.39,92.07-82.7,64.76-34.21,128-35.15,130.66-35.17h.28c2.66,0,65.9,1,130.66,35.17,38.46,20.31,69.44,48.13,92.07,82.7,28.06,42.86,43.08,96,44.62,157.82,0,.13,0,.27,0,.4V570.86a5.92,5.92,0,0,0,.26,1.79c4.24,14.11,27,87.09,57.3,138.23h0a38.23,38.23,0,0,1-33,57.63ZM264.5,449.63V570.86a38,38,0,0,1-1.62,11c-4.43,14.73-28.19,91-60.42,145.32a5.88,5.88,0,0,0,0,6.1,6.22,6.22,0,0,0,5.49,3.21H792.07a6.22,6.22,0,0,0,5.49-3.21,5.88,5.88,0,0,0,0-6.1h0c-31.41-53-54.19-124.63-60.43-145.33a38.3,38.3,0,0,1-1.61-11V449.63C732.93,349,692.68,277.36,615.86,236.79,559.36,207,503.33,205.39,500,205.33c-3.12.07-60.26,1.76-116.89,32C307,278,267.06,349.44,264.5,449.63Z"/><path d="M423.25 219.25a16 16 0 01-16-16v-26.5a92.75 92.75 0 01185.5 0v26a16 16 0 11-32 0v-26a60.75 60.75 0 00-121.5 0v26.5A16 16 0 01423.25 219.25zM500 916c-72.95 0-132.31-59.35-132.31-132.31V752.51a16 16 0 0116-16H616.31a16 16 0 0116 16v31.18C632.31 856.65 573 916 500 916zM399.69 768.51v15.18a100.31 100.31 0 10200.62 0V768.51z"/></svg>