<svg xmlns="http://www.w3.org/2000/svg" width="120" height="76"><g fill="none" fill-rule="evenodd"><path fill="#F4F4F4" d="M111.999 0H8C3.582 0 0 3.59 0 8.008v59.984C0 72.415 3.591 76 8.001 76H112c4.419 0 8.001-3.59 8.001-8.008V8.008C120 3.585 116.409 0 111.999 0Z"/><path fill="#F59D00" d="M29.03 40.68c-1.56 6.333-7.905 10.187-14.169 8.608C8.6 47.71 4.788 41.295 6.351 34.963c1.56-6.334 7.904-10.188 14.166-8.61 6.264 1.58 10.075 7.995 8.514 14.328 0 0 1.561-6.333 0 0Zm-6.187-4.543c.233-1.573-.951-2.418-2.571-2.983l.525-2.13-1.282-.323-.512 2.074a53.169 53.169 0 0 0-1.028-.244l.515-2.089-1.282-.323-.525 2.13a42.52 42.52 0 0 1-.82-.195l.002-.006-1.77-.447-.34 1.385s.951.22.931.235c.52.13.614.478.598.754l-.598 2.427c.035.01.082.023.133.043l-.136-.034-.838 3.4c-.064.16-.225.4-.588.309.012.019-.933-.235-.933-.235l-.637 1.484 1.67.421c.31.079.615.161.914.239l-.53 2.155 1.28.323.526-2.132c.35.096.69.184 1.023.268l-.524 2.122 1.283.323.53-2.15c2.188.418 3.833.25 4.525-1.751.558-1.61-.028-2.54-1.178-3.146.838-.195 1.469-.753 1.637-1.904 0 0-.168 1.151 0 0Zm-2.93 4.155c-.397 1.611-3.08.74-3.949.522l.705-2.855c.87.22 3.658.654 3.243 2.333 0 0 .415-1.68 0 0Zm.396-4.178c-.361 1.465-2.594.72-3.318.538l.639-2.59c.724.183 3.056.524 2.68 2.052 0 0 .376-1.528 0 0Z"/><path fill="#4D4D4D" d="M39.326 33.149c.948 0 1.767.171 2.456.509.691.34 1.262.8 1.72 1.376.451.58.787 1.258 1.004 2.035a9.39 9.39 0 0 1 .324 2.513c0 1.377-.25 2.678-.753 3.904a10.14 10.14 0 0 1-2.057 3.203 9.672 9.672 0 0 1-3.078 2.152c-1.181.529-2.466.793-3.844.793-.179 0-.492-.005-.935-.014-.443-.01-.952-.056-1.522-.134-.573-.08-1.18-.2-1.82-.36A9.057 9.057 0 0 1 29 48.466l5.12-21.749L38.704 26l-1.833 7.718a7.076 7.076 0 0 1 1.182-.418c.395-.1.819-.151 1.272-.151 0 0-.453 0 0 0ZM35.48 45.956c.69 0 1.341-.172 1.952-.509a5.155 5.155 0 0 0 1.586-1.361 6.89 6.89 0 0 0 1.05-1.93 6.642 6.642 0 0 0 .384-2.246c0-.957-.158-1.704-.473-2.244-.315-.537-.899-.807-1.746-.807-.278 0-.636.053-1.08.149a2.683 2.683 0 0 0-1.2.63l-1.951 8.196c.117.021.222.041.31.06.087.02.183.035.28.045.1.011.216.017.356.017h.532s-.217 0 0 0Zm13.356 3.26h-4.38l3.7-15.736h4.409l-3.729 15.736Zm2.131-17.653a2.698 2.698 0 0 1-1.657-.552c-.496-.367-.741-.93-.741-1.691 0-.418.084-.81.25-1.18.17-.37.39-.688.668-.959.276-.268.597-.482.96-.644a2.907 2.907 0 0 1 1.171-.238c.611 0 1.162.184 1.656.553.492.37.739.934.739 1.69 0 .42-.084.814-.252 1.183a3.115 3.115 0 0 1-1.626 1.6 2.858 2.858 0 0 1-1.168.238Zm4.685-2.002 4.587-.719-1.126 4.638h4.912l-.887 3.65h-4.883l-1.3 5.503c-.12.46-.188.888-.207 1.286-.022.4.028.744.147 1.033.117.29.329.513.636.671.305.161.742.242 1.316.242.472 0 .933-.045 1.378-.136.442-.088.89-.212 1.344-.373l.327 3.412c-.592.22-1.233.408-1.923.567-.692.16-1.51.238-2.457.238-1.36 0-2.415-.204-3.167-.61-.75-.41-1.28-.97-1.598-1.678-.314-.706-.453-1.52-.414-2.437.04-.919.177-1.885.414-2.902l2.9-12.385Zm8.18 13.373c0-1.355.217-2.633.65-3.83a9.443 9.443 0 0 1 1.867-3.143 8.739 8.739 0 0 1 2.945-2.123c1.15-.518 2.44-.778 3.86-.778.889 0 1.682.085 2.381.255a9.573 9.573 0 0 1 1.91.672l-1.51 3.473a14.04 14.04 0 0 0-1.228-.434c-.424-.132-.941-.195-1.553-.195-1.462 0-2.618.509-3.478 1.524-.856 1.017-1.288 2.385-1.288 4.1 0 1.017.217 1.84.653 2.469.433.629 1.234.942 2.396.942.573 0 1.127-.06 1.657-.179a8.1 8.1 0 0 0 1.421-.448l.327 3.56c-.554.216-1.164.412-1.835.584-.671.166-1.47.252-2.397.252-1.224 0-2.26-.18-3.107-.537-.848-.362-1.548-.843-2.1-1.452a5.486 5.486 0 0 1-1.199-2.14 8.871 8.871 0 0 1-.372-2.572s0 .896 0 0Zm18.705 6.7c-1.046 0-1.954-.16-2.724-.48-.768-.318-1.404-.766-1.907-1.346a5.834 5.834 0 0 1-1.14-2.048c-.257-.788-.382-1.66-.382-2.616 0-1.198.19-2.397.575-3.592a10.207 10.207 0 0 1 1.703-3.23 9.12 9.12 0 0 1 2.75-2.351c1.083-.607 2.328-.912 3.727-.912 1.026 0 1.93.161 2.71.48.777.318 1.417.77 1.923 1.346.5.58.881 1.261 1.137 2.05.258.786.385 1.66.385 2.617a12.05 12.05 0 0 1-.56 3.592 10.412 10.412 0 0 1-1.658 3.23 8.711 8.711 0 0 1-2.737 2.347c-1.093.608-2.362.913-3.802.913Zm2.189-12.804c-.65 0-1.224.19-1.715.567-.493.381-.908.86-1.242 1.437a7.14 7.14 0 0 0-.757 1.9 8.275 8.275 0 0 0-.25 1.959c0 .998.16 1.776.473 2.336.317.556.888.836 1.717.836.651 0 1.222-.189 1.717-.57.49-.377.905-.856 1.241-1.435a7.158 7.158 0 0 0 .757-1.9c.166-.686.25-1.341.25-1.959 0-.996-.159-1.775-.475-2.334-.315-.557-.888-.837-1.716-.837Zm10.591 12.386h-4.383l3.699-15.736h4.411l-3.727 15.736Zm2.128-17.653c-.61 0-1.165-.184-1.656-.552-.493-.367-.74-.93-.74-1.691 0-.418.085-.81.252-1.18a3.119 3.119 0 0 1 1.628-1.603 2.887 2.887 0 0 1 1.167-.238 2.7 2.7 0 0 1 1.658.553c.492.37.741.934.741 1.69 0 .42-.088.814-.254 1.183a3.105 3.105 0 0 1-1.624 1.6 2.867 2.867 0 0 1-1.172.238Zm3.254 2.634c.332-.098.703-.216 1.107-.345a16.162 16.162 0 0 1 3.049-.627c.62-.071 1.328-.106 2.114-.106 2.31 0 3.902.68 4.781 2.036.878 1.356 1.03 3.212.46 5.565l-2.014 8.496h-4.409l1.953-8.318c.119-.519.213-1.021.282-1.512.07-.486.065-.914-.016-1.285a1.542 1.542 0 0 0-.546-.899c-.289-.229-.726-.343-1.318-.343-.57 0-1.152.062-1.745.181l-2.87 12.176h-4.41l3.582-15.019Z"/></g></svg>